<svg
   xmlns="http://www.w3.org/2000/svg"
   version="1.1"
   width="95%"
   class="d-inline-block align-text-top"
   viewBox="0 0 250 75">
<g
   transform="matrix(1,0,0,-1,0,512) translate(-120,230)">
<g
   transform="scale(0.1)">
<path
   d="M 0,5120 H 5120 V 0 H 0 v 5120"
   style="fill:#ffffff;fill-opacity:0;fill-rule:evenodd;stroke:none"
   />
<path
   d="m 1381.21,2240.55 311.22,545.7 h -160.07 l -311.22,-545.7 z m 85.46,-130.8 h 160.07 l 145.72,255.51 71.12,-124.71 h 160.06 l -231.18,405.37 C 1670.53,2467.2 1568.6,2288.47 1466.67,2109.75"
   style="fill:#1e80d5;fill-opacity:1;fill-rule:evenodd;stroke:none"
   />
<path
   d="m 2341.11,2577.62 -36.39,88.83 -36.4,-88.83 z m -63.39,161.22 h 55.56 l 117.4,-275.88 h -63 l -25.05,61.45 H 2246.8 l -25.04,-61.45 h -61.44 z m 248.62,-1.95 h 66.52 l 71.61,-192.93 71.62,192.93 h 64.95 L 2690.3,2461.01 h -53.22 z m 376.57,0 h 60.27 v -273.93 h -60.27 z m 283.45,-277.84 c -20.87,0 -41.35,3.59 -61.43,10.76 -20.09,7.17 -38.36,18.2 -54.79,33.07 l 35.61,42.66 c 12.52,-10.18 25.37,-18.27 38.54,-24.27 13.17,-6 27.59,-9 43.25,-9 12.52,0 22.23,2.28 29.14,6.85 6.92,4.56 10.38,10.89 10.38,18.97 v 0.79 c 0,3.91 -0.72,7.37 -2.15,10.37 -1.44,3 -4.18,5.8 -8.23,8.41 -4.1,2.61 -9.71,5.22 -16.88,7.83 -7.17,2.61 -16.57,5.35 -28.05,8.22 -13.89,3.39 -26.41,7.17 -37.7,11.35 -11.21,4.17 -20.8,9.32 -28.63,15.45 -7.83,6.13 -13.96,13.76 -18.26,22.9 -4.3,9.12 -6.46,20.47 -6.46,34.04 v 0.78 c 0,12.53 2.35,23.81 6.98,33.85 4.7,10.05 11.22,18.72 19.63,26.03 8.42,7.3 18.52,12.91 30.2,16.82 11.67,3.91 24.59,5.87 38.67,5.87 20.09,0 38.55,-3 55.38,-9 16.82,-6 32.28,-14.61 46.37,-25.82 l -31.3,-45.4 c -12.27,8.35 -24.27,14.94 -36,19.76 -11.75,4.83 -23.49,7.24 -35.23,7.24 -11.74,0 -20.54,-2.28 -26.41,-6.85 -5.88,-4.56 -8.81,-10.23 -8.81,-17.02 v -0.78 c 0,-4.44 0.86,-8.28 2.55,-11.54 1.7,-3.26 4.76,-6.2 9.2,-8.81 4.5,-2.61 10.56,-5.09 18.26,-7.44 7.76,-2.35 17.48,-5.08 29.21,-8.21 13.9,-3.66 26.28,-7.76 37.11,-12.32 10.83,-4.57 20.03,-10.06 27.46,-16.45 7.44,-6.39 13.11,-13.89 16.89,-22.5 3.78,-8.6 5.68,-18.91 5.68,-30.91 v -0.79 c 0,-13.56 -2.48,-25.62 -7.37,-36.19 -4.96,-10.56 -11.81,-19.44 -20.61,-26.61 -8.81,-7.17 -19.37,-12.66 -31.56,-16.44 -12.21,-3.78 -25.77,-5.67 -40.64,-5.67 z m 343.32,54.79 c 12,0 23.09,2.21 33.26,6.65 10.18,4.44 18.85,10.56 26.02,18.39 7.18,7.83 12.79,16.89 16.83,27.2 4.04,10.3 6.06,21.33 6.06,33.06 v 0.79 c 0,11.73 -2.02,22.82 -6.06,33.26 -4.04,10.43 -9.79,19.56 -17.22,27.39 -7.43,7.83 -16.24,14.02 -26.41,18.58 -10.18,4.58 -21.26,6.86 -33.27,6.86 -12.26,0 -23.41,-2.22 -33.45,-6.66 -10.05,-4.43 -18.65,-10.57 -25.83,-18.39 -7.18,-7.83 -12.79,-16.89 -16.83,-27.19 -4.04,-10.31 -6.06,-21.33 -6.06,-33.07 v -0.78 c 0,-11.74 2.02,-22.83 6.06,-33.27 4.04,-10.43 9.79,-19.57 17.22,-27.39 7.44,-7.82 16.17,-14.02 26.22,-18.59 10.04,-4.56 21.19,-6.84 33.46,-6.84 z m -0.79,-55.57 c -21.12,0 -40.56,3.71 -58.3,11.15 -17.74,7.44 -33.07,17.48 -45.98,30.13 -12.91,12.65 -22.96,27.52 -30.13,44.61 -7.18,17.09 -10.77,35.42 -10.77,54.98 v 0.79 c 0,19.56 3.66,37.89 10.96,54.98 7.31,17.08 17.41,32.08 30.33,45 12.91,12.91 28.31,23.08 46.18,30.52 17.87,7.44 37.37,11.16 58.5,11.16 21.12,0 40.57,-3.72 58.3,-11.16 17.74,-7.44 33.07,-17.48 45.99,-30.13 12.91,-12.65 22.96,-27.53 30.13,-44.61 7.17,-17.09 10.76,-35.41 10.76,-54.98 v -0.78 c 0,-19.57 -3.65,-37.9 -10.96,-54.99 -7.31,-17.08 -17.41,-32.08 -30.33,-45 -12.91,-12.9 -28.3,-23.08 -46.17,-30.52 -17.87,-7.44 -37.37,-11.15 -58.51,-11.15"
   style="fill:#000000;fill-opacity:1;fill-rule:nonzero;stroke:none"
 />
<path
   d="m 2160.33,2350.36 h 27.07 l 29.13,-78.49 29.14,78.49 h 26.43 l -45.05,-112.24 h -21.66 z m 218.57,0 h 83.9 v -21.81 h -59.7 v -22.6 h 52.54 v -21.82 h -52.54 v -23.41 h 60.5 v -21.81 h -84.7 z m 196.27,0 h 22.61 l 52.22,-68.62 v 68.62 h 24.2 v -111.45 h -20.85 l -53.98,70.85 v -70.85 h -24.2 z m 241.33,-22.61 h -33.91 v 22.61 h 92.35 v -22.61 h -33.92 v -88.84 h -24.52 z m 213.32,-90.59 c -14.97,0 -26.75,4.14 -35.35,12.42 -8.6,8.28 -12.9,20.65 -12.9,37.1 v 63.68 h 24.52 v -63.05 c 0,-9.13 2.12,-16 6.37,-20.61 4.24,-4.62 10.14,-6.93 17.67,-6.93 7.54,0 13.44,2.23 17.67,6.69 4.25,4.45 6.38,11.14 6.38,20.06 v 63.84 h 24.52 v -62.89 c 0,-8.49 -1.15,-15.87 -3.43,-22.13 -2.28,-6.26 -5.54,-11.48 -9.79,-15.68 -4.25,-4.19 -9.39,-7.32 -15.44,-9.4 -6.05,-2.06 -12.8,-3.1 -20.22,-3.1 z m 212.82,59.07 c 6.06,0 10.7,1.43 13.94,4.3 3.24,2.86 4.85,6.69 4.85,11.46 v 0.32 c 0,5.3 -1.69,9.28 -5.09,11.94 -3.39,2.65 -8.12,3.98 -14.17,3.98 h -24.36 v -32 z m -49.35,54.13 h 50.95 c 14.12,0 24.94,-3.77 32.48,-11.31 6.37,-6.36 9.56,-14.85 9.56,-25.46 v -0.32 c 0,-9.03 -2.21,-16.38 -6.62,-22.06 -4.4,-5.67 -10.16,-9.84 -17.27,-12.49 l 27.22,-39.81 h -28.65 l -23.88,35.67 h -0.32 -18.95 v -35.67 h -24.52 z m 204.72,0 h 83.9 v -21.81 h -59.7 v -22.6 h 52.54 v -21.82 h -52.54 v -23.41 h 60.5 v -21.81 h -84.7 z m 236.08,-113.04 c -8.5,0 -16.83,1.46 -25,4.38 -8.18,2.92 -15.61,7.4 -22.29,13.46 l 14.49,17.35 c 5.09,-4.14 10.32,-7.43 15.68,-9.87 5.36,-2.44 11.23,-3.67 17.6,-3.67 5.08,0 9.04,0.93 11.86,2.79 2.81,1.85 4.22,4.44 4.22,7.72 v 0.32 c 0,1.59 -0.3,3 -0.88,4.22 -0.59,1.22 -1.7,2.37 -3.34,3.43 -1.68,1.06 -3.96,2.12 -6.88,3.17 -2.92,1.07 -6.74,2.18 -11.41,3.35 -5.65,1.38 -10.75,2.92 -15.34,4.62 -4.56,1.7 -8.46,3.79 -11.65,6.29 -3.18,2.49 -5.67,5.59 -7.42,9.31 -1.75,3.72 -2.63,8.34 -2.63,13.86 v 0.31 c 0,5.09 0.95,9.68 2.84,13.77 1.91,4.09 4.56,7.62 7.99,10.59 3.42,2.97 7.53,5.25 12.28,6.85 4.75,1.59 10,2.39 15.74,2.39 8.16,0 15.68,-1.23 22.52,-3.67 6.85,-2.43 13.14,-5.94 18.87,-10.5 l -12.73,-18.47 c -5,3.39 -9.88,6.07 -14.65,8.04 -4.78,1.96 -9.56,2.94 -14.33,2.94 -4.78,0 -8.36,-0.93 -10.75,-2.78 -2.38,-1.86 -3.58,-4.17 -3.58,-6.93 v -0.32 c 0,-1.8 0.34,-3.37 1.03,-4.69 0.69,-1.33 1.94,-2.53 3.74,-3.59 1.84,-1.06 4.31,-2.06 7.43,-3.03 3.16,-0.95 7.11,-2.06 11.89,-3.34 5.65,-1.48 10.69,-3.16 15.1,-5.01 4.4,-1.86 8.14,-4.09 11.17,-6.69 3.03,-2.6 5.33,-5.65 6.87,-9.15 1.54,-3.51 2.31,-7.7 2.31,-12.58 v -0.32 c 0,-5.52 -1,-10.43 -3,-14.73 -2.02,-4.3 -4.8,-7.91 -8.38,-10.82 -3.58,-2.92 -7.88,-5.15 -12.84,-6.69 -4.97,-1.54 -10.49,-2.31 -16.53,-2.31"
   style="fill:#000000;fill-opacity:1;fill-rule:nonzero;stroke:none"
/>
</g></g></svg>
