<?xml version="1.0" standalone="no"?>
<!DOCTYPE svg PUBLIC "-//W3C//DTD SVG 20010904//EN"
 "http://www.w3.org/TR/2001/REC-SVG-20010904/DTD/svg10.dtd">
<svg version="1.0" xmlns="http://www.w3.org/2000/svg"
 width="580.000000pt" height="580.000000pt" viewBox="0 0 580.000000 580.000000"
 preserveAspectRatio="xMidYMid meet">
<metadata>
Created by potrace 1.14, written by Peter Selinger 2001-2017
</metadata>
<g transform="translate(0.000000,580.000000) scale(0.100000,-0.100000)"
fill="#000000" stroke="none">
<path d="M2316 5340 c-12 -20 -27 -45 -34 -55 -7 -11 -19 -33 -27 -50 -8 -16
-26 -48 -39 -70 -14 -22 -31 -51 -39 -65 -7 -14 -24 -43 -37 -65 -21 -37 -39
-68 -95 -170 -12 -22 -42 -74 -66 -115 -24 -41 -50 -86 -57 -100 -25 -48 -49
-90 -59 -102 -6 -7 -25 -40 -43 -73 -33 -61 -48 -87 -111 -197 -20 -35 -46
-80 -58 -100 -70 -125 -90 -159 -150 -262 -28 -49 -51 -91 -51 -93 0 -2 -11
-21 -24 -42 -13 -21 -43 -73 -67 -117 -23 -43 -50 -91 -61 -106 -10 -14 -18
-29 -18 -32 0 -3 -18 -34 -39 -70 -22 -35 -53 -90 -71 -122 -17 -33 -35 -66
-40 -74 -42 -68 -93 -157 -101 -174 -5 -12 -21 -39 -34 -61 -14 -22 -31 -51
-37 -65 -7 -14 -27 -48 -45 -77 -18 -29 -33 -55 -33 -58 0 -3 -11 -22 -23 -43
-13 -20 -36 -58 -50 -84 -15 -27 -39 -69 -54 -95 -14 -27 -31 -57 -37 -68 -6
-11 -16 -27 -22 -35 -6 -8 -27 -44 -46 -80 -20 -36 -46 -83 -58 -105 -13 -22
-34 -60 -48 -84 -14 -25 -38 -67 -53 -93 -16 -27 -29 -52 -29 -55 0 -4 -6 -14
-14 -22 -7 -9 -28 -43 -46 -76 -17 -33 -35 -64 -40 -70 -4 -5 -21 -35 -37 -65
-17 -30 -40 -72 -52 -93 -11 -20 -30 -53 -41 -72 -11 -19 -29 -51 -40 -70 -11
-19 -29 -51 -40 -71 -12 -20 -18 -39 -15 -43 4 -3 254 -6 556 -6 l549 0 20 27
c11 15 25 38 31 50 5 13 15 32 22 43 7 11 32 54 55 95 24 41 47 82 53 90 5 8
16 29 24 45 9 17 27 48 41 70 13 22 31 54 40 70 8 17 26 48 39 70 14 22 28 47
32 55 4 8 17 32 29 52 13 20 43 72 67 115 24 43 68 121 99 173 30 52 58 102
61 110 4 8 15 29 25 45 10 17 31 53 47 80 16 28 39 68 52 90 12 22 28 51 35
65 7 14 19 36 29 50 9 14 27 45 41 70 14 25 36 63 48 85 31 54 64 112 89 157
36 66 46 83 57 98 6 8 25 40 41 70 17 30 44 79 62 108 17 29 31 55 31 57 0 3
18 34 40 70 22 36 40 68 40 70 0 3 11 22 23 43 26 40 64 108 107 187 15 28 37
66 49 85 12 19 28 49 37 65 8 17 26 48 39 70 14 22 28 47 32 55 4 8 26 47 48
85 23 39 44 77 48 85 4 8 18 33 32 55 14 22 28 47 32 55 4 8 16 31 28 50 12
19 35 58 50 85 16 28 39 68 52 90 12 22 27 49 33 60 5 11 23 43 40 70 16 28
37 64 46 80 8 17 26 48 39 70 13 22 30 51 38 65 7 14 23 41 34 60 11 19 35 62
53 95 18 33 41 74 51 90 10 17 27 46 38 65 l19 35 -561 0 -560 0 -21 -35z"/>
<path d="M4011 4317 c-13 -23 -33 -60 -46 -82 -13 -22 -30 -51 -38 -65 -32
-58 -71 -125 -176 -308 -61 -106 -111 -195 -111 -197 0 -3 -20 -38 -43 -78
-24 -39 -47 -79 -50 -87 -4 -8 -18 -33 -32 -55 -14 -22 -28 -47 -32 -55 -4 -8
-16 -31 -28 -50 -12 -19 -35 -57 -50 -85 -16 -27 -39 -68 -51 -90 -13 -22 -36
-62 -51 -90 -15 -27 -32 -58 -38 -67 -11 -18 -132 -227 -155 -270 -68 -121
-104 -184 -127 -221 -13 -21 -28 -48 -34 -60 -5 -12 -23 -44 -40 -72 -16 -27
-36 -63 -44 -80 -9 -16 -25 -46 -36 -65 -12 -19 -55 -93 -95 -165 -41 -71 -79
-137 -84 -145 -9 -15 -123 -215 -146 -255 -6 -11 -21 -38 -33 -60 -12 -22 -30
-53 -40 -70 -32 -53 -64 -109 -89 -155 -13 -25 -27 -49 -32 -55 -4 -5 -20 -32
-35 -60 -16 -27 -39 -68 -51 -90 -12 -22 -31 -56 -42 -75 -18 -33 -37 -67 -82
-145 -53 -93 -65 -113 -88 -154 -14 -25 -38 -67 -53 -93 -16 -27 -29 -51 -29
-54 0 -2 -12 -22 -26 -44 -15 -22 -24 -44 -20 -48 4 -4 255 -7 557 -7 l550 0
28 45 c16 25 39 64 52 87 13 22 53 92 89 155 36 62 69 122 73 133 4 11 14 26
21 35 7 8 27 40 43 70 17 30 40 72 52 92 37 65 62 110 89 160 15 27 37 65 49
86 13 20 30 51 38 67 9 17 24 44 34 60 24 39 59 101 84 145 10 19 27 50 37 67
9 18 22 38 27 45 6 7 24 38 40 68 17 30 40 73 53 95 12 22 31 56 42 75 11 19
29 51 40 70 11 19 32 55 46 80 14 25 34 59 44 75 10 17 25 44 33 61 22 49 41
50 67 2 13 -22 28 -48 33 -57 6 -9 33 -56 60 -105 28 -48 60 -104 72 -125 12
-20 29 -49 37 -66 18 -33 51 -91 84 -145 12 -19 28 -48 37 -65 8 -16 25 -46
36 -65 12 -19 32 -53 44 -75 45 -83 67 -120 76 -130 6 -6 209 -10 564 -10 551
0 555 0 548 20 -5 18 -27 57 -60 110 -7 11 -19 34 -28 50 -8 17 -26 48 -40 70
-13 22 -29 49 -35 60 -5 11 -23 43 -39 70 -17 28 -37 64 -45 80 -9 17 -27 48
-41 70 -14 22 -32 54 -40 70 -9 17 -27 48 -40 70 -13 22 -31 54 -39 70 -8 17
-27 50 -42 75 -15 25 -37 63 -49 85 -12 22 -48 85 -80 140 -31 55 -71 125 -87
155 -17 30 -38 66 -47 80 -9 14 -20 34 -26 45 -5 12 -57 103 -115 203 -58 101
-114 200 -126 220 -11 20 -30 53 -42 72 -12 19 -26 45 -31 57 -6 12 -27 50
-49 85 -21 35 -41 71 -45 78 -4 8 -18 33 -32 55 -13 22 -33 58 -44 80 -11 22
-32 58 -45 80 -14 22 -33 56 -44 75 -46 84 -127 225 -142 250 -34 53 -140 243
-140 249 0 4 -8 15 -18 24 -17 16 -20 15 -41 -26z"/>
</g>
</svg>
